<mxfile host="app.diagrams.net" modified="2022-09-20T23:10:40.430Z" agent="5.0 (Windows NT 10.0; Win64; x64) AppleWebKit/537.36 (KHTML, like Gecko) Chrome/105.0.0.0 Safari/537.36" etag="f67Y3LXwRhTImeUWm_Bh" version="20.3.2" type="github">
  <diagram id="JIG51_Y-ZrX-sUV2rBaf" name="Page-1">
    <mxGraphModel dx="1394" dy="895" grid="1" gridSize="10" guides="1" tooltips="1" connect="1" arrows="1" fold="1" page="1" pageScale="1" pageWidth="850" pageHeight="1100" math="0" shadow="0">
      <root>
        <mxCell id="0" />
        <mxCell id="1" parent="0" />
        <mxCell id="wmBAzadsRGxahdrNkqKr-1" value="Carta de Restaurante" style="rounded=1;arcSize=10;whiteSpace=wrap;html=1;align=center;" vertex="1" parent="1">
          <mxGeometry x="170" y="40" width="100" height="40" as="geometry" />
        </mxCell>
        <mxCell id="wmBAzadsRGxahdrNkqKr-3" style="rounded=0;orthogonalLoop=1;jettySize=auto;html=1;" edge="1" parent="1" target="wmBAzadsRGxahdrNkqKr-4">
          <mxGeometry relative="1" as="geometry">
            <mxPoint x="80" y="120" as="targetPoint" />
            <mxPoint x="80" y="190" as="sourcePoint" />
          </mxGeometry>
        </mxCell>
        <mxCell id="wmBAzadsRGxahdrNkqKr-6" style="rounded=0;orthogonalLoop=1;jettySize=auto;html=1;entryX=0.02;entryY=0.75;entryDx=0;entryDy=0;exitX=0.75;exitY=0;exitDx=0;exitDy=0;entryPerimeter=0;" edge="1" parent="1" source="wmBAzadsRGxahdrNkqKr-15" target="wmBAzadsRGxahdrNkqKr-10">
          <mxGeometry relative="1" as="geometry">
            <mxPoint x="98.70951264389114" y="170.5123609683501" as="sourcePoint" />
            <mxPoint x="161.29466094067257" y="140.00213562373096" as="targetPoint" />
          </mxGeometry>
        </mxCell>
        <mxCell id="wmBAzadsRGxahdrNkqKr-11" style="edgeStyle=none;rounded=0;orthogonalLoop=1;jettySize=auto;html=1;exitX=1;exitY=0.5;exitDx=0;exitDy=0;" edge="1" parent="1" source="wmBAzadsRGxahdrNkqKr-15" target="wmBAzadsRGxahdrNkqKr-7">
          <mxGeometry relative="1" as="geometry">
            <mxPoint x="130" y="210" as="sourcePoint" />
          </mxGeometry>
        </mxCell>
        <mxCell id="wmBAzadsRGxahdrNkqKr-12" style="edgeStyle=none;rounded=0;orthogonalLoop=1;jettySize=auto;html=1;exitX=0.5;exitY=1;exitDx=0;exitDy=0;entryX=0.31;entryY=0.025;entryDx=0;entryDy=0;entryPerimeter=0;" edge="1" parent="1" target="wmBAzadsRGxahdrNkqKr-9">
          <mxGeometry relative="1" as="geometry">
            <mxPoint x="80" y="230" as="sourcePoint" />
          </mxGeometry>
        </mxCell>
        <mxCell id="wmBAzadsRGxahdrNkqKr-13" style="edgeStyle=none;rounded=0;orthogonalLoop=1;jettySize=auto;html=1;exitX=1;exitY=1;exitDx=0;exitDy=0;" edge="1" parent="1" target="wmBAzadsRGxahdrNkqKr-8">
          <mxGeometry relative="1" as="geometry">
            <mxPoint x="115.35533905932743" y="224.14213562373106" as="sourcePoint" />
          </mxGeometry>
        </mxCell>
        <mxCell id="wmBAzadsRGxahdrNkqKr-4" value="Nombre" style="ellipse;whiteSpace=wrap;html=1;align=center;" vertex="1" parent="1">
          <mxGeometry x="80" y="100" width="100" height="40" as="geometry" />
        </mxCell>
        <mxCell id="wmBAzadsRGxahdrNkqKr-7" value="Descripcion" style="ellipse;whiteSpace=wrap;html=1;align=center;" vertex="1" parent="1">
          <mxGeometry x="180" y="210" width="100" height="40" as="geometry" />
        </mxCell>
        <mxCell id="wmBAzadsRGxahdrNkqKr-8" value="Nivel de Dificultad" style="ellipse;whiteSpace=wrap;html=1;align=center;" vertex="1" parent="1">
          <mxGeometry x="150" y="260" width="100" height="40" as="geometry" />
        </mxCell>
        <mxCell id="wmBAzadsRGxahdrNkqKr-9" value="Precio Final" style="ellipse;whiteSpace=wrap;html=1;align=center;" vertex="1" parent="1">
          <mxGeometry x="70" y="300" width="100" height="40" as="geometry" />
        </mxCell>
        <mxCell id="wmBAzadsRGxahdrNkqKr-10" value="Foto" style="ellipse;whiteSpace=wrap;html=1;align=center;" vertex="1" parent="1">
          <mxGeometry x="210" y="160" width="100" height="40" as="geometry" />
        </mxCell>
        <mxCell id="wmBAzadsRGxahdrNkqKr-25" value="1" style="edgeStyle=none;rounded=0;orthogonalLoop=1;jettySize=auto;html=1;exitX=0.25;exitY=1;exitDx=0;exitDy=0;" edge="1" parent="1" source="wmBAzadsRGxahdrNkqKr-15" target="wmBAzadsRGxahdrNkqKr-26">
          <mxGeometry relative="1" as="geometry">
            <mxPoint x="45" y="310" as="targetPoint" />
          </mxGeometry>
        </mxCell>
        <mxCell id="wmBAzadsRGxahdrNkqKr-31" style="edgeStyle=none;rounded=0;orthogonalLoop=1;jettySize=auto;html=1;exitX=1;exitY=0;exitDx=0;exitDy=0;" edge="1" parent="1" source="wmBAzadsRGxahdrNkqKr-15" target="wmBAzadsRGxahdrNkqKr-32">
          <mxGeometry relative="1" as="geometry">
            <mxPoint x="340" y="140" as="targetPoint" />
          </mxGeometry>
        </mxCell>
        <mxCell id="wmBAzadsRGxahdrNkqKr-15" value="Plato" style="rounded=1;arcSize=10;whiteSpace=wrap;html=1;align=center;" vertex="1" parent="1">
          <mxGeometry x="20" y="190" width="100" height="40" as="geometry" />
        </mxCell>
        <mxCell id="wmBAzadsRGxahdrNkqKr-17" style="edgeStyle=none;rounded=0;orthogonalLoop=1;jettySize=auto;html=1;exitX=1;exitY=0.5;exitDx=0;exitDy=0;" edge="1" parent="1" source="wmBAzadsRGxahdrNkqKr-16" target="wmBAzadsRGxahdrNkqKr-18">
          <mxGeometry relative="1" as="geometry">
            <mxPoint x="350" y="430" as="targetPoint" />
          </mxGeometry>
        </mxCell>
        <mxCell id="wmBAzadsRGxahdrNkqKr-19" style="edgeStyle=none;rounded=0;orthogonalLoop=1;jettySize=auto;html=1;exitX=0.75;exitY=1;exitDx=0;exitDy=0;" edge="1" parent="1" source="wmBAzadsRGxahdrNkqKr-16" target="wmBAzadsRGxahdrNkqKr-20">
          <mxGeometry relative="1" as="geometry">
            <mxPoint x="290" y="500" as="targetPoint" />
          </mxGeometry>
        </mxCell>
        <mxCell id="wmBAzadsRGxahdrNkqKr-21" style="edgeStyle=none;rounded=0;orthogonalLoop=1;jettySize=auto;html=1;exitX=0.25;exitY=1;exitDx=0;exitDy=0;" edge="1" parent="1" source="wmBAzadsRGxahdrNkqKr-16" target="wmBAzadsRGxahdrNkqKr-24">
          <mxGeometry relative="1" as="geometry">
            <mxPoint x="180" y="480" as="targetPoint" />
          </mxGeometry>
        </mxCell>
        <mxCell id="wmBAzadsRGxahdrNkqKr-16" value="Categoria" style="rounded=1;arcSize=10;whiteSpace=wrap;html=1;align=center;" vertex="1" parent="1">
          <mxGeometry x="180" y="410" width="100" height="40" as="geometry" />
        </mxCell>
        <mxCell id="wmBAzadsRGxahdrNkqKr-18" value="Nombre" style="ellipse;whiteSpace=wrap;html=1;align=center;fontStyle=4;" vertex="1" parent="1">
          <mxGeometry x="320" y="410" width="100" height="40" as="geometry" />
        </mxCell>
        <mxCell id="wmBAzadsRGxahdrNkqKr-20" value="Descripcion" style="ellipse;whiteSpace=wrap;html=1;align=center;" vertex="1" parent="1">
          <mxGeometry x="280" y="470" width="100" height="40" as="geometry" />
        </mxCell>
        <mxCell id="wmBAzadsRGxahdrNkqKr-24" value="Nombre Encargado" style="ellipse;whiteSpace=wrap;html=1;align=center;" vertex="1" parent="1">
          <mxGeometry x="180" y="490" width="100" height="40" as="geometry" />
        </mxCell>
        <mxCell id="wmBAzadsRGxahdrNkqKr-27" value="n" style="edgeStyle=none;rounded=0;orthogonalLoop=1;jettySize=auto;html=1;entryX=0;entryY=0.5;entryDx=0;entryDy=0;" edge="1" parent="1" source="wmBAzadsRGxahdrNkqKr-26" target="wmBAzadsRGxahdrNkqKr-16">
          <mxGeometry relative="1" as="geometry" />
        </mxCell>
        <mxCell id="wmBAzadsRGxahdrNkqKr-26" value="Tiene" style="shape=rhombus;perimeter=rhombusPerimeter;whiteSpace=wrap;html=1;align=center;" vertex="1" parent="1">
          <mxGeometry x="-10" y="330" width="120" height="60" as="geometry" />
        </mxCell>
        <mxCell id="wmBAzadsRGxahdrNkqKr-34" style="edgeStyle=none;rounded=0;orthogonalLoop=1;jettySize=auto;html=1;exitX=0.25;exitY=0;exitDx=0;exitDy=0;" edge="1" parent="1" source="wmBAzadsRGxahdrNkqKr-32" target="wmBAzadsRGxahdrNkqKr-35">
          <mxGeometry relative="1" as="geometry">
            <mxPoint x="440" y="70" as="targetPoint" />
          </mxGeometry>
        </mxCell>
        <mxCell id="wmBAzadsRGxahdrNkqKr-36" style="edgeStyle=none;rounded=0;orthogonalLoop=1;jettySize=auto;html=1;exitX=1;exitY=0.5;exitDx=0;exitDy=0;" edge="1" parent="1" source="wmBAzadsRGxahdrNkqKr-32" target="wmBAzadsRGxahdrNkqKr-37">
          <mxGeometry relative="1" as="geometry">
            <mxPoint x="500" y="120" as="targetPoint" />
          </mxGeometry>
        </mxCell>
        <mxCell id="wmBAzadsRGxahdrNkqKr-43" style="edgeStyle=none;rounded=0;orthogonalLoop=1;jettySize=auto;html=1;exitX=1;exitY=0;exitDx=0;exitDy=0;" edge="1" parent="1" source="wmBAzadsRGxahdrNkqKr-32" target="wmBAzadsRGxahdrNkqKr-44">
          <mxGeometry relative="1" as="geometry">
            <mxPoint x="480" y="80.2941176470589" as="targetPoint" />
          </mxGeometry>
        </mxCell>
        <mxCell id="wmBAzadsRGxahdrNkqKr-32" value="Ingredientes" style="rounded=1;arcSize=10;whiteSpace=wrap;html=1;align=center;" vertex="1" parent="1">
          <mxGeometry x="320" y="80" width="100" height="40" as="geometry" />
        </mxCell>
        <mxCell id="wmBAzadsRGxahdrNkqKr-35" value="Id" style="ellipse;whiteSpace=wrap;html=1;align=center;fontStyle=4;" vertex="1" parent="1">
          <mxGeometry x="390" y="20" width="100" height="40" as="geometry" />
        </mxCell>
        <mxCell id="wmBAzadsRGxahdrNkqKr-37" value="Recetas" style="ellipse;whiteSpace=wrap;html=1;align=center;" vertex="1" parent="1">
          <mxGeometry x="450" y="130" width="100" height="40" as="geometry" />
        </mxCell>
        <mxCell id="wmBAzadsRGxahdrNkqKr-38" style="rounded=0;orthogonalLoop=1;jettySize=auto;html=1;exitX=0.25;exitY=0;exitDx=0;exitDy=0;" edge="1" parent="1" target="wmBAzadsRGxahdrNkqKr-39" source="wmBAzadsRGxahdrNkqKr-15">
          <mxGeometry relative="1" as="geometry">
            <mxPoint x="40" y="110" as="targetPoint" />
            <mxPoint x="39.99999999999977" y="180" as="sourcePoint" />
          </mxGeometry>
        </mxCell>
        <mxCell id="wmBAzadsRGxahdrNkqKr-39" value="&lt;u&gt;Id&lt;/u&gt;" style="ellipse;whiteSpace=wrap;html=1;align=center;" vertex="1" parent="1">
          <mxGeometry x="-30" y="100" width="100" height="40" as="geometry" />
        </mxCell>
        <mxCell id="wmBAzadsRGxahdrNkqKr-40" style="rounded=0;orthogonalLoop=1;jettySize=auto;html=1;exitX=0.119;exitY=0.993;exitDx=0;exitDy=0;exitPerimeter=0;" edge="1" parent="1" target="wmBAzadsRGxahdrNkqKr-41" source="wmBAzadsRGxahdrNkqKr-16">
          <mxGeometry relative="1" as="geometry">
            <mxPoint x="80" y="460" as="targetPoint" />
            <mxPoint x="189.99999999999977" y="470" as="sourcePoint" />
          </mxGeometry>
        </mxCell>
        <mxCell id="wmBAzadsRGxahdrNkqKr-41" value="&lt;u&gt;Id&lt;/u&gt;" style="ellipse;whiteSpace=wrap;html=1;align=center;" vertex="1" parent="1">
          <mxGeometry x="70" y="480" width="100" height="40" as="geometry" />
        </mxCell>
        <mxCell id="wmBAzadsRGxahdrNkqKr-44" value="Lista" style="ellipse;whiteSpace=wrap;html=1;align=center;" vertex="1" parent="1">
          <mxGeometry x="470" y="70.0041176470589" width="100" height="40" as="geometry" />
        </mxCell>
      </root>
    </mxGraphModel>
  </diagram>
</mxfile>
